# xmcd
#
# Track frame offsets:
#	150
#	16734
#	31587
#	45102
#	72116
#	88573
#	101648
#	115122
#	131934
#	150725
#	165337
#	187229
#	203882
#	221753
#	238250
#	258572
#	280532
#	297008
#
# Disc length: 4194
#
# Revision: 3
# Processed by: cddbd v1.5.1PL0 Copyright (c) Steve Scherf et al.
# Submitted via: cddb2pg 0.002
# Normalized: r2:DSETVAR1
#
DISCID=f5106012
DTITLE=Various Artist - Disco House CD 2
DYEAR=1900
DGENRE=
TTITLE0=Hardsoul Feat. Rose - All Night Long
TTITLE1=Moloko - Sing It Back
TTITLE2=Tiefschwarz - Music
TTITLE3=Chili Hifly - Is It Love?
TTITLE4=Basement Jaxx - Miracles Keep On Playin'
TTITLE5=Topazz - New Millennium
TTITLE6=Kluster - Back To The Funk
TTITLE7=New Vision - Me And You
TTITLE8=Paul Johnson - Get Get Down
TTITLE9=Soulsearcher - I Can't Get Enough
TTITLE10=Baby Bumps - I Got This Feeling
TTITLE11=DJ Rene - Music All Over The World
TTITLE12=Jounior Rack - My Feeling
TTITLE13=Phats and Small - Turn Around
TTITLE14=Gambafreaks - One More Time
TTITLE15=Angels Of Love - One Night Love Affair
TTITLE16=Onephatdeeva - In And Out Of My Life
TTITLE17=Warmdue Project - King Of My Castle
EXTD=
EXTT0=
EXTT1=
EXTT2=
EXTT3=
EXTT4=
EXTT5=
EXTT6=
EXTT7=
EXTT8=
EXTT9=
EXTT10=
EXTT11=
EXTT12=
EXTT13=
EXTT14=
EXTT15=
EXTT16=
EXTT17=
PLAYORDER=
